<svg width="320" height="62" viewBox="0 0 320 62" fill="none" xmlns="http://www.w3.org/2000/svg">
<path d="M2.54 38.24C1.14 40.55 0.51 42.16 0.51 43.56C0.51 46.5 3.87 50 6.74 50C8.42 50 8.98 49.3 9.89 46.22C10.24 45.1 10.73 43.91 11.29 42.65C12.13 40.9 12.55 40.34 13.32 40.06C14.65 39.57 17.73 39.15 21.65 38.94C21.51 40.48 21.44 41.53 21.44 42.65C21.44 44.82 21.79 46.01 22.91 47.2C24.87 49.3 26.06 49.93 27.74 49.93C30.33 49.93 32.29 48.46 32.29 46.5C32.29 46.22 32.22 45.66 32.15 45.1C32.01 43.84 31.94 42.72 31.94 41.81C31.94 38.73 32.36 34.25 32.92 30.54C33.83 25.08 35.72 17.73 37.61 12.13C38.38 10.03 38.52 9.33 38.52 8.7C38.52 8 38.17 7.23 37.4 6.46L36.21 5.27C33.69 2.75 33.41 2.54 32.01 2.54C30.82 2.54 29.84 2.96 28.3 4.08C25.5 6.11 21.23 10.52 17.52 15.14C14.3 19.06 9.68 25.57 7.79 28.79C5.69 32.22 5.55 32.43 3.87 32.99C2.19 33.55 1.7 34.04 1.7 35.23C1.7 36.07 1.91 36.7 2.54 38.24ZM22.98 29.84C21.37 30.12 20.11 30.33 19.27 30.47C19.13 30.47 18.99 30.47 18.85 30.47C18.57 30.47 18.36 30.33 18.36 30.12C18.36 29.77 18.57 29.42 19.27 28.3L21.44 25.08C21.58 24.87 21.93 24.45 22.91 23.19C23.26 22.7 23.61 22.21 24.03 21.79C24.52 21.09 24.59 21.02 24.73 20.88C25.08 20.53 25.22 20.39 25.5 20.39C25.64 20.39 25.78 20.53 25.78 20.67C25.78 20.81 25.71 21.02 25.57 21.44C24.03 25.43 23.61 26.83 22.98 29.84ZM37.6264 39.92C37.6264 46.01 40.8464 49.93 45.8164 49.93C49.2464 49.93 52.6764 47.76 55.5464 43.84C55.9664 43.28 56.1764 43.14 56.4564 43.14C56.7364 43.14 56.8764 43.35 56.9464 43.84C57.0164 47.34 59.6064 50 62.8964 50C64.3664 50 65.0664 49.23 65.2764 47.34C66.2564 38.24 70.0364 26.69 75.2164 17.24L78.9964 10.31C79.6964 9.05 79.9764 8.35 79.9764 7.72C79.9764 7.37 79.8364 7.09 79.4864 6.67C79.0664 6.04 78.4364 5.2 78.1564 4.85C77.1764 3.8 76.2664 3.31 74.9364 3.31C71.7864 3.31 69.8264 5.69 65.2064 15.07C63.2464 19.13 61.4264 22.7 59.8164 25.64C57.5064 29.98 55.1964 33.62 53.5164 35.58C51.9064 37.4 50.6464 38.31 49.7364 38.31C48.8964 38.31 48.4064 37.68 48.4064 36.56C48.4064 35.09 48.9664 32.92 49.9464 30.19C52.3264 23.82 55.3364 18.57 61.0064 11.01C61.9864 9.75 62.4064 8.91 62.4064 8.35C62.4064 7.65 61.8464 6.81 60.5864 5.41C59.1164 3.8 58.2764 3.38 56.7364 3.38C53.8664 3.38 51.5564 4.64 51.3464 6.39C51.2064 7.58 50.7864 8.28 48.6864 11.43C45.0464 16.75 42.6664 21.3 40.6364 26.69C38.6764 32.01 37.6264 36.42 37.6264 39.92ZM80.7409 43.07C80.7409 44.89 81.5109 46.43 83.4709 48.46C84.5209 49.51 85.4309 50 86.5509 50C89.0009 50 91.5909 48.04 91.6609 46.22V44.82C91.6609 42.37 92.7109 37.82 94.3209 33.2C96.0709 28.23 97.9609 23.82 100.901 17.94C102.231 15.28 102.791 14.37 103.211 13.95C103.841 13.39 105.451 12.97 107.411 12.97C108.461 12.97 109.441 13.11 110.351 13.32C110.631 13.39 110.911 13.39 111.051 13.39C112.031 13.39 112.871 11.92 112.871 10.03C112.871 6.04 110.141 3.38 106.011 3.38C104.751 3.38 103.071 3.59 99.1509 4.36L94.0409 5.27C89.9809 6.04 88.5109 6.25 87.1109 6.25C86.1309 6.25 85.2909 6.18 84.1009 5.97C83.8909 5.9 83.7509 5.9 83.6109 5.9C82.5609 5.9 81.7909 7.3 81.7909 9.26C81.7909 13.25 84.1009 15.84 87.6709 15.84C88.3709 15.84 88.5109 15.77 89.8409 15.56C89.9809 15.56 90.1209 15.49 90.2609 15.49C90.6109 15.49 90.8209 15.77 90.8209 16.26C90.8209 16.54 90.7509 16.89 90.4709 17.31L88.5809 21.23C86.2709 25.99 84.2409 30.89 82.2809 36.56C81.3009 39.29 80.7409 41.88 80.7409 43.07ZM104.612 37.47C104.612 44.96 109.022 50.35 115.322 50.35C122.322 50.35 129.672 44.68 134.922 35.37C138.212 29.42 139.962 23.47 139.962 18.22C139.962 16.61 139.822 15.21 139.542 14.16L138.982 11.78C138.912 11.43 138.772 10.8 138.632 10.1C138.072 7.51 137.582 6.53 135.902 5.13C134.152 3.66 132.752 3.03 131.072 3.03C128.412 3.03 124.982 4.71 120.922 8C111.682 15.35 104.612 28.16 104.612 37.47ZM115.462 35.79C115.462 31.52 119.382 23.54 123.932 18.43C126.732 15.21 128.832 13.6 130.092 13.6C130.862 13.6 131.422 14.3 131.422 15.42C131.422 18.92 128.972 25.57 125.752 30.75C122.882 35.44 119.452 38.73 117.492 38.73C116.302 38.73 115.462 37.47 115.462 35.79ZM154.035 27.25C152.005 27.25 148.435 27.67 145.985 28.09C142.065 28.86 140.945 29.49 140.945 30.96C140.945 31.38 141.015 31.87 141.155 32.36L141.925 34.32L142.485 35.93C142.905 37.19 143.675 37.82 144.585 37.82C145.145 37.82 145.285 37.82 148.785 36.84C151.165 36.14 152.775 35.86 154.035 35.86C155.015 35.86 156.205 36 156.975 36.28C157.255 36.35 157.535 36.42 157.675 36.42C158.515 36.42 159.075 35.3 159.075 33.62C159.075 29.35 157.395 27.25 154.035 27.25ZM169.965 21.58C169.965 25.01 171.435 28.16 174.445 31.1L176.825 33.48C178.085 34.74 178.645 35.72 178.645 36.77C178.645 38.73 176.685 40.2 174.165 40.2C172.275 40.2 171.435 39.71 169.545 37.33C168.495 36 167.655 35.51 166.255 35.51C163.595 35.51 161.565 37.75 161.565 40.83C161.565 46.01 167.095 50.07 174.305 50.07C182.985 50.07 190.055 44.4 190.055 37.33C190.055 34.11 189.075 32.43 184.945 28.44C181.445 25.08 180.465 23.4 180.465 21.23C180.465 19.34 181.585 17.17 183.685 15.35C184.945 14.23 186.065 13.6 186.905 13.6C187.395 13.6 187.675 13.88 187.675 14.3C187.675 14.72 187.465 15.42 186.905 16.54C186.205 18.01 185.925 18.71 185.925 19.34C185.925 19.97 186.485 21.58 187.115 23.05C187.815 24.59 188.865 25.29 190.405 25.29C192.085 25.29 193.765 24.38 194.675 22.91C196.075 20.74 196.915 17.73 196.915 14.93C196.915 11.99 195.935 9.12 194.115 6.6C192.435 4.29 190.615 3.31 188.165 3.31C185.155 3.31 181.585 4.78 178.155 7.51C172.555 11.85 169.965 16.4 169.965 21.58Z" fill="white"/>
<path d="M209.918 1V49" stroke="white"/>
<path d="M244.177 2.57571C244.177 2.91571 243.857 3.29571 243.017 3.95571C242.257 4.5357 241.777 4.77571 241.437 4.77571C241.297 4.77571 241.117 4.69571 240.937 4.5557C240.697 4.3557 240.517 4.05571 240.517 3.85571C240.517 3.73571 240.577 3.65571 240.697 3.5157C241.317 2.85571 241.517 2.6157 241.657 2.3357L242.017 1.61571C242.177 1.3357 242.357 1.1957 242.577 1.1957C242.837 1.1957 242.957 1.27571 243.577 1.7757C244.037 2.1557 244.177 2.3357 244.177 2.57571Z" fill="white"/>
<path d="M224.696 12.704C224.696 15.272 226.208 17.12 228.368 17.12C230.768 17.12 233.288 15.176 235.088 11.984C236.216 9.944 236.816 7.904 236.816 6.104C236.816 5.552 236.768 5.072 236.672 4.712L236.48 3.896C236.456 3.776 236.408 3.56 236.36 3.32C236.168 2.432 236 2.096 235.424 1.616C234.824 1.112 234.344 0.896 233.768 0.896C232.856 0.896 231.68 1.472 230.288 2.6C227.12 5.12 224.696 9.512 224.696 12.704ZM228.416 12.128C228.416 10.664 229.76 7.928 231.32 6.176C232.28 5.072 233 4.52 233.432 4.52C233.696 4.52 233.888 4.76 233.888 5.144C233.888 6.344 233.048 8.624 231.944 10.4C230.96 12.008 229.784 13.136 229.112 13.136C228.704 13.136 228.416 12.704 228.416 12.128ZM243.081 14.144C243.081 13.448 242.817 13.04 241.809 12.152C240.873 11.312 240.609 10.952 240.609 10.448C240.609 10.088 240.801 9.752 241.137 9.464C241.401 9.248 241.689 9.104 241.857 9.104C242.025 9.104 242.145 9.224 242.145 9.368C242.145 9.44 242.121 9.512 241.977 9.656C241.713 9.992 241.665 10.088 241.665 10.256C241.665 10.448 241.737 10.592 242.073 11.072C242.385 11.552 242.625 11.696 243.033 11.696C243.921 11.696 244.857 10.52 244.857 9.344C244.857 9.176 244.833 9.008 244.785 8.84L244.593 8.24C244.545 8.096 244.497 7.904 244.449 7.688C244.161 6.416 243.633 5.96 242.337 5.96C239.721 5.96 237.273 8 237.273 10.208C237.273 11.024 237.585 11.552 238.569 12.44L239.049 12.848C239.433 13.208 239.577 13.424 239.577 13.64C239.577 13.928 239.289 14.168 238.953 14.168C238.737 14.168 238.593 14.096 238.449 13.88L238.209 13.544C237.873 13.064 237.609 12.92 237.129 12.92C236.313 12.92 235.713 13.52 235.713 14.336C235.713 15.872 237.225 17 239.289 17C241.473 17 243.081 15.8 243.081 14.144ZM248.966 5.888C248.15 5.888 247.238 6.44 247.166 6.968L247.094 7.592C247.07 7.712 246.998 7.952 246.854 8.288C246.062 10.136 245.582 11.528 245.174 12.992C244.862 14.048 244.766 14.576 244.766 14.984C244.766 15.416 244.91 15.776 245.246 16.16C245.774 16.784 246.086 17 246.494 17C247.358 17 248.078 16.4 248.078 15.704C248.078 15.56 248.078 15.488 248.078 15.44C248.078 14.768 248.222 13.976 248.51 13.184C249.23 11.216 250.454 9.68 251.27 9.68C251.438 9.68 251.63 9.776 251.726 9.944L252.014 10.376C252.11 10.496 252.206 10.568 252.326 10.568C252.638 10.568 252.998 10.352 253.406 9.944C254.102 9.248 254.51 8.336 254.51 7.472C254.51 6.56 253.886 5.888 253.07 5.888C252.494 5.888 251.942 6.224 251.222 7.064L250.574 7.832C250.454 7.976 250.382 8.024 250.334 8.024C250.262 8.024 250.214 8 250.214 7.928C250.214 7.88 250.238 7.808 250.286 7.712C250.382 7.496 250.43 7.352 250.43 7.232C250.43 6.992 250.19 6.632 249.734 6.224C249.494 6.008 249.254 5.888 248.966 5.888ZM253.604 13.64C253.604 15.656 254.948 17.096 256.82 17.096C259.724 17.096 262.748 13.328 262.748 9.68C262.748 9.368 262.724 9.056 262.652 8.744L262.436 7.736C262.268 7.016 262.172 6.8 261.908 6.488C261.452 5.984 260.756 5.696 260.036 5.696C258.836 5.696 257.252 6.632 255.98 8.096C254.54 9.728 253.604 11.912 253.604 13.64ZM257.012 12.704C257.012 12.2 257.324 11.456 257.828 10.688C258.404 9.776 258.956 9.272 259.364 9.272C259.628 9.272 259.796 9.512 259.796 9.872C259.796 10.376 259.532 11.144 259.1 11.864C258.548 12.8 258.02 13.304 257.54 13.328C257.252 13.328 257.012 13.064 257.012 12.704ZM262.979 13.76C262.979 15.584 264.131 17.024 265.643 17.024C266.675 17.024 267.371 16.664 268.523 15.536C268.571 15.464 268.619 15.44 268.667 15.44C268.763 15.44 268.811 15.512 268.907 15.752C269.195 16.664 269.651 17.024 270.491 17.024C271.595 17.024 272.531 16.472 273.659 15.176C274.835 13.808 275.507 12.632 275.507 11.936C275.507 11.36 275.123 10.688 274.787 10.688C274.643 10.688 274.523 10.784 274.331 11.096L273.827 11.84C273.251 12.68 272.531 13.352 272.219 13.352C272.075 13.352 271.979 13.232 271.979 13.04C271.979 12.8 272.123 12.344 272.579 11.096C273.059 9.776 273.515 8.768 274.307 7.16C275.315 5.12 275.747 4.304 276.059 3.752C276.539 2.984 276.587 2.84 276.587 2.576C276.587 2.408 276.515 2.216 276.419 2.096L275.939 1.568L275.675 1.232C275.483 1.04 275.147 0.92 274.811 0.92C274.379 0.92 273.899 1.088 273.467 1.4C273.227 1.592 273.155 1.688 273.083 2C273.035 2.312 272.987 2.456 272.915 2.648C272.795 2.936 272.459 3.656 272.099 4.352L271.403 5.768C271.043 6.536 270.995 6.608 270.875 6.608C270.803 6.608 270.755 6.584 270.683 6.536L270.371 6.296C269.963 5.984 269.579 5.864 269.099 5.864C267.923 5.864 266.435 6.848 265.115 8.504C263.819 10.112 262.979 12.2 262.979 13.76ZM268.907 11.912C268.523 12.416 268.403 12.56 268.187 12.8C267.779 13.28 267.275 13.592 266.939 13.592C266.699 13.592 266.555 13.4 266.555 13.088C266.555 12.464 267.155 11.096 267.803 10.232C268.403 9.464 268.835 9.128 269.195 9.128C269.483 9.128 269.651 9.32 269.651 9.632C269.651 10.016 269.339 10.952 268.907 11.912ZM279.235 12.632C279.595 12.68 279.787 12.68 280.051 12.68C282.595 12.68 284.563 10.856 284.563 8.552C284.563 6.944 283.555 5.84 282.067 5.84C279.043 5.84 275.683 9.848 275.683 13.448C275.683 15.584 277.123 17.072 279.163 17.072C280.387 17.072 281.467 16.544 282.403 15.512C283.099 14.768 283.555 13.856 283.555 13.256C283.555 12.92 283.339 12.656 283.027 12.656C282.811 12.656 282.691 12.752 282.091 13.28C281.443 13.856 280.891 14.144 280.315 14.144C279.691 14.144 279.187 13.64 279.187 12.992C279.187 12.896 279.211 12.776 279.235 12.632ZM280.075 10.4C280.675 9.392 281.395 8.696 281.851 8.696C282.043 8.696 282.163 8.816 282.163 9.008C282.163 9.344 281.827 9.824 281.395 10.112C281.107 10.328 280.771 10.4 280.291 10.4C280.243 10.4 280.195 10.4 280.075 10.4ZM284.516 15.032C284.516 15.536 284.636 15.776 285.068 16.304C285.524 16.856 285.764 17 286.22 17C287.108 17 287.852 16.4 287.852 15.656C287.852 15.584 287.852 15.464 287.828 15.296C287.828 15.224 287.828 15.152 287.828 15.104C287.828 14.264 288.164 13.304 288.716 12.488C289.028 12.032 289.388 11.696 289.604 11.696C289.676 11.696 289.724 11.744 289.724 11.792C289.724 11.816 289.724 11.816 289.652 12.056C289.46 12.728 289.34 13.496 289.34 14.12C289.34 15.824 290.324 17.024 291.692 17.024C292.724 17.024 293.732 16.352 294.74 14.936C295.58 13.784 296.18 12.608 296.18 12.128C296.18 11.816 296.036 11.312 295.82 11.024C295.7 10.832 295.58 10.736 295.436 10.736C295.268 10.736 295.124 10.88 294.908 11.168C293.924 12.656 293.444 13.136 293.012 13.136C292.82 13.136 292.724 12.968 292.724 12.632C292.724 12.2 292.772 11.6 292.916 10.88C293.06 10.112 293.132 9.8 293.228 9.656C293.348 9.44 293.804 9.272 294.188 9.272C294.308 9.272 294.428 9.272 294.572 9.32C294.692 9.344 294.788 9.368 294.836 9.368C295.052 9.368 295.34 9.176 295.604 8.864C295.964 8.432 296.228 7.832 296.228 7.472C296.228 6.608 295.412 5.864 294.5 5.864C293.444 5.864 292.076 6.536 290.66 7.808C290.468 7.976 290.444 8 290.396 8C290.324 8 290.276 7.952 290.276 7.88C290.276 7.784 290.3 7.712 290.396 7.52C290.444 7.448 290.588 7.184 290.804 6.776C291.212 5.96 291.692 5.096 292.244 4.16C292.796 3.224 292.94 2.936 292.94 2.648C292.94 2.384 292.796 2.168 292.292 1.592C291.812 1.064 291.596 0.943999 291.164 0.943999C290.78 0.943999 290.276 1.088 289.892 1.304C289.484 1.52 289.412 1.616 289.316 2.216C289.244 2.672 289.028 3.176 288.524 4.136C287.492 6.128 286.46 8.432 285.62 10.712C284.924 12.608 284.516 14.216 284.516 15.032ZM226.712 29.256C226.712 30.432 227.216 31.512 228.248 32.52L229.064 33.336C229.496 33.768 229.688 34.104 229.688 34.464C229.688 35.136 229.016 35.64 228.152 35.64C227.504 35.64 227.216 35.472 226.568 34.656C226.208 34.2 225.92 34.032 225.44 34.032C224.528 34.032 223.832 34.8 223.832 35.856C223.832 37.632 225.728 39.024 228.2 39.024C231.176 39.024 233.6 37.08 233.6 34.656C233.6 33.552 233.264 32.976 231.848 31.608C230.648 30.456 230.312 29.88 230.312 29.136C230.312 28.488 230.696 27.744 231.416 27.12C231.848 26.736 232.232 26.52 232.52 26.52C232.688 26.52 232.784 26.616 232.784 26.76C232.784 26.904 232.712 27.144 232.52 27.528C232.28 28.032 232.184 28.272 232.184 28.488C232.184 28.704 232.376 29.256 232.592 29.76C232.832 30.288 233.192 30.528 233.72 30.528C234.296 30.528 234.872 30.216 235.184 29.712C235.664 28.968 235.952 27.936 235.952 26.976C235.952 25.968 235.616 24.984 234.992 24.12C234.416 23.328 233.792 22.992 232.952 22.992C231.92 22.992 230.696 23.496 229.52 24.432C227.6 25.92 226.712 27.48 226.712 29.256ZM239.676 31.008C239.676 31.056 239.628 31.104 239.508 31.2L238.716 31.848C235.668 34.272 234.42 35.688 234.42 36.672C234.42 37.032 234.468 37.176 235.044 37.92C235.788 38.904 235.908 39.024 236.316 39.024C236.436 39.024 236.604 38.976 236.796 38.952L238.116 38.616C238.524 38.52 239.028 38.472 239.604 38.472C240.156 38.472 240.588 38.544 240.996 38.664L241.356 38.784C241.452 38.808 241.524 38.832 241.596 38.832C241.692 38.832 241.788 38.784 241.932 38.712C242.484 38.376 242.844 37.752 242.844 37.128C242.844 36.192 242.1 35.544 241.092 35.544C240.804 35.544 240.444 35.568 240.108 35.64C239.772 35.712 239.7 35.736 239.58 35.736C239.484 35.736 239.412 35.688 239.412 35.616C239.412 35.52 239.484 35.376 239.676 35.184C239.964 34.848 240.852 34.032 241.596 33.432L243.444 31.944C244.26 31.272 244.5 30.912 244.5 30.384C244.5 30.024 244.308 29.28 244.092 28.752C243.852 28.152 243.492 27.936 242.796 27.936C242.58 27.936 242.22 27.96 241.884 27.984L240.396 28.104L239.22 28.2C238.98 28.224 238.74 28.224 238.5 28.224C238.116 28.224 237.828 28.2 237.42 28.128C237.372 28.104 237.324 28.104 237.276 28.104C236.844 28.104 236.268 28.872 236.268 29.52C236.268 30.408 237.012 31.08 237.972 31.08C238.188 31.08 238.548 31.032 238.86 30.984C239.388 30.888 239.46 30.888 239.532 30.888C239.628 30.888 239.676 30.936 239.676 31.008ZM243.898 37.032C243.898 37.536 244.018 37.776 244.45 38.304C244.906 38.856 245.146 39 245.602 39C246.49 39 247.234 38.4 247.234 37.656C247.234 37.584 247.234 37.464 247.21 37.296C247.21 37.224 247.21 37.152 247.21 37.104C247.21 36.264 247.546 35.304 248.098 34.488C248.41 34.032 248.77 33.696 248.986 33.696C249.058 33.696 249.106 33.744 249.106 33.792C249.106 33.816 249.106 33.816 249.034 34.056C248.842 34.728 248.722 35.496 248.722 36.12C248.722 37.824 249.706 39.024 251.074 39.024C252.106 39.024 253.114 38.352 254.122 36.936C254.962 35.784 255.562 34.608 255.562 34.128C255.562 33.816 255.418 33.312 255.202 33.024C255.082 32.832 254.962 32.736 254.818 32.736C254.65 32.736 254.506 32.88 254.29 33.168C253.306 34.656 252.826 35.136 252.394 35.136C252.202 35.136 252.106 34.968 252.106 34.632C252.106 34.2 252.154 33.6 252.298 32.88C252.442 32.112 252.514 31.8 252.61 31.656C252.73 31.44 253.186 31.272 253.57 31.272C253.69 31.272 253.81 31.272 253.954 31.32C254.074 31.344 254.17 31.368 254.218 31.368C254.434 31.368 254.722 31.176 254.986 30.864C255.346 30.432 255.61 29.832 255.61 29.472C255.61 28.608 254.794 27.864 253.882 27.864C252.826 27.864 251.458 28.536 250.042 29.808C249.85 29.976 249.826 30 249.778 30C249.706 30 249.658 29.952 249.658 29.88C249.658 29.784 249.682 29.712 249.778 29.52C249.826 29.448 249.97 29.184 250.186 28.776C250.594 27.96 251.074 27.096 251.626 26.16C252.178 25.224 252.322 24.936 252.322 24.648C252.322 24.384 252.178 24.168 251.674 23.592C251.194 23.064 250.978 22.944 250.546 22.944C250.162 22.944 249.658 23.088 249.274 23.304C248.866 23.52 248.794 23.616 248.698 24.216C248.626 24.672 248.41 25.176 247.906 26.136C246.874 28.128 245.842 30.432 245.002 32.712C244.306 34.608 243.898 36.216 243.898 37.032ZM255.925 35.64C255.925 37.656 257.269 39.096 259.141 39.096C262.045 39.096 265.069 35.328 265.069 31.68C265.069 31.368 265.045 31.056 264.973 30.744L264.757 29.736C264.589 29.016 264.493 28.8 264.229 28.488C263.773 27.984 263.077 27.696 262.357 27.696C261.157 27.696 259.573 28.632 258.301 30.096C256.861 31.728 255.925 33.912 255.925 35.64ZM259.333 34.704C259.333 34.2 259.645 33.456 260.149 32.688C260.725 31.776 261.277 31.272 261.685 31.272C261.949 31.272 262.117 31.512 262.117 31.872C262.117 32.376 261.853 33.144 261.421 33.864C260.869 34.8 260.341 35.304 259.861 35.328C259.573 35.328 259.333 35.064 259.333 34.704ZM271.828 23.112C271.468 23.112 270.964 23.256 270.58 23.472C270.268 23.664 270.196 23.736 270.1 24.12C269.98 24.6 269.716 25.2 268.972 26.616C268.132 28.176 267.124 30.336 266.404 32.04C265.588 34.008 265.204 35.328 265.204 36.408C265.204 37.944 266.092 39 267.34 39C268.42 39 269.5 38.328 270.724 36.912C271.684 35.76 272.308 34.632 272.308 34.008C272.308 33.432 271.948 32.856 271.588 32.856C271.396 32.856 271.372 32.88 270.7 33.792C270.004 34.752 269.284 35.448 268.972 35.448C268.828 35.448 268.756 35.328 268.756 35.136C268.756 34.68 269.332 33.168 270.364 31.008C271.204 29.184 272.548 26.712 273.244 25.656C273.532 25.224 273.604 25.032 273.604 24.792C273.604 24.552 273.484 24.336 273.076 23.856C272.596 23.28 272.284 23.112 271.828 23.112ZM276.235 34.632C276.595 34.68 276.787 34.68 277.051 34.68C279.595 34.68 281.563 32.856 281.563 30.552C281.563 28.944 280.555 27.84 279.067 27.84C276.043 27.84 272.683 31.848 272.683 35.448C272.683 37.584 274.123 39.072 276.163 39.072C277.387 39.072 278.467 38.544 279.403 37.512C280.099 36.768 280.555 35.856 280.555 35.256C280.555 34.92 280.339 34.656 280.027 34.656C279.811 34.656 279.691 34.752 279.091 35.28C278.443 35.856 277.891 36.144 277.315 36.144C276.691 36.144 276.187 35.64 276.187 34.992C276.187 34.896 276.211 34.776 276.235 34.632ZM277.075 32.4C277.675 31.392 278.395 30.696 278.851 30.696C279.043 30.696 279.163 30.816 279.163 31.008C279.163 31.344 278.827 31.824 278.395 32.112C278.107 32.328 277.771 32.4 277.291 32.4C277.243 32.4 277.195 32.4 277.075 32.4ZM285.716 27.912C285.332 27.912 284.732 28.128 284.3 28.416C283.988 28.632 283.916 28.776 283.868 29.16C283.82 29.688 283.748 29.88 283.604 30.288L282.572 32.808C282.044 34.152 281.516 36.312 281.516 37.128C281.516 37.608 281.636 37.848 282.14 38.376C282.668 38.904 282.836 39.024 283.196 39.024C284.108 39.024 284.828 38.424 284.828 37.68C284.828 37.632 284.804 37.512 284.804 37.44C284.804 37.32 284.804 37.224 284.804 37.176C284.804 36.168 285.212 34.944 286.004 33.624C286.58 32.688 287.132 32.112 287.492 32.112C287.588 32.112 287.66 32.184 287.66 32.304C287.66 32.472 287.612 32.616 287.204 33.648C286.748 34.8 286.556 35.664 286.556 36.456C286.556 37.968 287.444 39 288.74 39C289.796 39 290.9 38.352 291.956 37.104C293.108 35.736 293.804 34.56 293.804 33.984C293.804 33.72 293.66 33.312 293.444 33.024C293.324 32.88 293.204 32.784 293.084 32.784C292.892 32.784 292.748 32.928 292.436 33.384C291.716 34.464 290.804 35.376 290.42 35.376C290.276 35.376 290.132 35.256 290.132 35.088C290.132 34.92 290.228 34.656 290.396 34.176C290.708 33.36 290.996 32.712 291.74 31.176C292.076 30.528 292.172 30.216 292.172 29.88C292.172 29.496 292.028 29.256 291.548 28.68C290.972 28.008 290.756 27.888 290.3 27.888C289.724 27.888 289.052 28.32 287.876 29.496C287.324 30.024 287.204 30.12 287.108 30.12C287.036 30.12 286.988 30.048 286.988 29.952C286.988 29.88 287.012 29.784 287.084 29.544C287.132 29.424 287.156 29.328 287.156 29.232C287.156 29.064 287.012 28.8 286.628 28.392C286.316 28.08 286.028 27.912 285.716 27.912ZM297.61 25.248C297.61 25.656 297.778 25.968 298.138 26.28L298.786 26.808C299.266 27.216 299.482 27.312 299.89 27.312C300.754 27.312 301.474 26.592 301.474 25.728C301.474 25.152 301.354 24.936 300.586 24.312L300.178 24C299.842 23.712 299.554 23.592 299.194 23.592C298.354 23.592 297.61 24.36 297.61 25.248ZM298.234 27.936C297.73 27.936 297.105 28.128 296.746 28.416C296.482 28.608 296.41 28.728 296.362 29.04C296.266 29.664 296.218 29.832 295.162 32.352C294.346 34.248 294.01 35.448 294.01 36.408C294.01 37.968 294.874 39 296.146 39C297.082 39 297.898 38.568 298.882 37.608C300.154 36.336 301.186 34.728 301.186 33.984C301.186 33.672 300.993 33.264 300.778 33.024C300.658 32.904 300.538 32.832 300.418 32.832C300.273 32.832 300.13 33 299.77 33.48C298.93 34.704 298.234 35.376 297.826 35.376C297.682 35.376 297.562 35.28 297.562 35.112C297.562 34.944 297.658 34.608 297.826 34.2C298.282 32.976 298.93 31.536 299.434 30.648C299.794 30 299.89 29.76 299.89 29.52C299.89 29.328 299.794 29.16 299.482 28.776C299.458 28.728 299.362 28.632 299.242 28.464C298.954 28.08 298.666 27.936 298.234 27.936ZM301.464 35.76C301.464 37.608 302.64 39.024 304.176 39.024C305.064 39.024 305.808 38.64 306.768 37.704C306.96 37.512 307.056 37.464 307.128 37.464C307.224 37.464 307.248 37.512 307.344 37.752C307.608 38.592 308.136 39 308.904 39C309.552 39 310.272 38.736 310.848 38.28C311.904 37.488 312.936 36.264 313.728 34.872C313.92 34.536 313.992 34.272 313.992 34.056C313.992 33.768 313.824 33.336 313.608 33.048C313.488 32.856 313.368 32.784 313.272 32.784C313.2 32.784 313.104 32.832 313.032 32.88C312.936 32.976 312.912 33 312.312 33.84C311.568 34.824 310.968 35.376 310.584 35.376C310.44 35.376 310.344 35.256 310.344 35.088C310.344 34.8 310.536 34.2 310.968 33.24L311.544 31.968C311.736 31.56 311.808 31.272 311.808 30.984C311.808 30.6 311.544 30.288 311.016 30.024L310.08 29.592C309.888 29.496 309.696 29.352 309.528 29.136L309.144 28.656C308.736 28.152 308.256 27.912 307.608 27.912C306.384 27.912 304.944 28.8 303.696 30.336C302.328 31.968 301.464 34.104 301.464 35.76ZM305.016 35.04C305.064 34.272 305.64 33.024 306.456 31.992C306.936 31.368 307.368 31.056 307.68 31.056C307.968 31.056 308.136 31.272 308.136 31.608C308.136 32.232 307.68 33.336 307.056 34.2C306.456 35.04 305.808 35.568 305.4 35.568C305.184 35.568 304.992 35.328 305.016 35.04ZM231.2 44.992C230.336 44.992 229.448 45.52 229.4 46.048L229.376 46.408C229.352 46.6 229.208 46.936 228.896 47.584C228.656 48.064 228.296 48.784 227.984 49.408C226.976 51.352 225.752 54.184 224.936 56.392C224.528 57.472 224.384 58.096 224.384 58.528C224.384 59.032 224.504 59.464 224.816 59.872C225.536 60.856 225.704 61 226.256 61C226.832 61 227.528 60.712 227.888 60.328C228.032 60.184 228.08 60.04 228.08 59.752C228.08 59.704 228.08 59.608 228.08 59.44C228.128 58.768 228.128 58.624 228.176 58.384C228.32 57.568 228.704 56.248 229.088 55.216C229.736 53.488 229.784 53.392 229.952 53.392C230.048 53.392 230.072 53.44 230.072 53.704C230.168 55.72 230.312 57.328 230.504 58.216C230.912 60.04 231.848 61 233.168 61C234.248 61 235.376 60.16 235.376 59.368C235.376 59.224 235.328 59.128 235.088 58.96C234.704 58.648 234.56 58.408 234.296 57.712C234.008 56.968 233.864 56.368 233.696 55.072C233.576 53.968 233.504 53.296 233.504 52.912C233.504 52.6 233.576 52.408 233.816 52.12C234.32 51.496 234.824 51.016 235.808 50.248C236.696 49.552 236.984 49.36 238.256 48.544C239.816 47.512 239.912 47.44 239.912 47.152C239.912 46.96 239.768 46.696 239.408 46.216C238.784 45.352 238.352 45.04 237.8 45.04C237.128 45.04 236.384 45.448 235.16 46.456C234.224 47.224 233.144 48.256 232.352 49.12L231.32 50.272C231.2 50.416 231.152 50.44 231.104 50.44C231.056 50.44 231.008 50.416 231.008 50.368C231.008 50.32 231.032 50.248 231.128 50.08C231.488 49.384 231.968 48.568 232.376 47.968C232.808 47.32 232.976 46.912 232.976 46.6C232.976 46.312 232.784 46.024 232.256 45.496C231.848 45.136 231.56 44.992 231.2 44.992ZM240.539 47.248C240.539 47.656 240.707 47.968 241.067 48.28L241.715 48.808C242.195 49.216 242.411 49.312 242.819 49.312C243.683 49.312 244.403 48.592 244.403 47.728C244.403 47.152 244.283 46.936 243.515 46.312L243.107 46C242.771 45.712 242.483 45.592 242.123 45.592C241.283 45.592 240.539 46.36 240.539 47.248ZM241.163 49.936C240.659 49.936 240.035 50.128 239.675 50.416C239.411 50.608 239.339 50.728 239.291 51.04C239.195 51.664 239.147 51.832 238.091 54.352C237.275 56.248 236.939 57.448 236.939 58.408C236.939 59.968 237.803 61 239.075 61C240.011 61 240.827 60.568 241.811 59.608C243.083 58.336 244.115 56.728 244.115 55.984C244.115 55.672 243.923 55.264 243.707 55.024C243.587 54.904 243.467 54.832 243.347 54.832C243.203 54.832 243.059 55 242.699 55.48C241.859 56.704 241.163 57.376 240.755 57.376C240.611 57.376 240.491 57.28 240.491 57.112C240.491 56.944 240.587 56.608 240.755 56.2C241.211 54.976 241.859 53.536 242.363 52.648C242.723 52 242.819 51.76 242.819 51.52C242.819 51.328 242.723 51.16 242.411 50.776C242.387 50.728 242.291 50.632 242.171 50.464C241.883 50.08 241.595 49.936 241.163 49.936ZM247.945 56.632C248.305 56.68 248.497 56.68 248.761 56.68C251.305 56.68 253.273 54.856 253.273 52.552C253.273 50.944 252.265 49.84 250.777 49.84C247.753 49.84 244.393 53.848 244.393 57.448C244.393 59.584 245.833 61.072 247.873 61.072C249.097 61.072 250.177 60.544 251.113 59.512C251.809 58.768 252.265 57.856 252.265 57.256C252.265 56.92 252.049 56.656 251.737 56.656C251.521 56.656 251.401 56.752 250.801 57.28C250.153 57.856 249.601 58.144 249.025 58.144C248.401 58.144 247.897 57.64 247.897 56.992C247.897 56.896 247.921 56.776 247.945 56.632ZM248.785 54.4C249.385 53.392 250.105 52.696 250.561 52.696C250.753 52.696 250.873 52.816 250.873 53.008C250.873 53.344 250.537 53.824 250.105 54.112C249.817 54.328 249.481 54.4 249.001 54.4C248.953 54.4 248.905 54.4 248.785 54.4ZM257.427 49.888C256.611 49.888 255.699 50.44 255.627 50.968L255.555 51.592C255.531 51.712 255.459 51.952 255.315 52.288C254.523 54.136 254.043 55.528 253.635 56.992C253.323 58.048 253.227 58.576 253.227 58.984C253.227 59.416 253.371 59.776 253.707 60.16C254.235 60.784 254.547 61 254.955 61C255.819 61 256.539 60.4 256.539 59.704C256.539 59.56 256.539 59.488 256.539 59.44C256.539 58.768 256.683 57.976 256.971 57.184C257.691 55.216 258.915 53.68 259.731 53.68C259.899 53.68 260.091 53.776 260.187 53.944L260.475 54.376C260.571 54.496 260.667 54.568 260.787 54.568C261.099 54.568 261.459 54.352 261.867 53.944C262.563 53.248 262.971 52.336 262.971 51.472C262.971 50.56 262.347 49.888 261.531 49.888C260.955 49.888 260.403 50.224 259.683 51.064L259.035 51.832C258.915 51.976 258.843 52.024 258.795 52.024C258.723 52.024 258.675 52 258.675 51.928C258.675 51.88 258.699 51.808 258.747 51.712C258.843 51.496 258.891 51.352 258.891 51.232C258.891 50.992 258.651 50.632 258.195 50.224C257.955 50.008 257.715 49.888 257.427 49.888ZM262.065 57.64C262.065 59.656 263.409 61.096 265.281 61.096C268.185 61.096 271.209 57.328 271.209 53.68C271.209 53.368 271.185 53.056 271.113 52.744L270.897 51.736C270.729 51.016 270.633 50.8 270.369 50.488C269.913 49.984 269.217 49.696 268.497 49.696C267.297 49.696 265.713 50.632 264.441 52.096C263.001 53.728 262.065 55.912 262.065 57.64ZM265.473 56.704C265.473 56.2 265.785 55.456 266.289 54.688C266.865 53.776 267.417 53.272 267.825 53.272C268.089 53.272 268.257 53.512 268.257 53.872C268.257 54.376 267.993 55.144 267.561 55.864C267.009 56.8 266.481 57.304 266.001 57.328C265.713 57.328 265.473 57.064 265.473 56.704ZM274.992 49.864C274.488 49.864 273.912 50.08 273.552 50.392C273.312 50.608 273.216 50.752 273.168 51.16C273.072 51.736 273.024 51.904 272.784 52.6C272.496 53.464 272.352 54.04 272.208 54.736C271.968 55.888 271.8 57.232 271.8 57.976C271.8 59.056 271.992 59.488 272.784 60.04C273.864 60.808 274.152 60.952 274.536 60.952C275.04 60.952 275.4 60.712 275.688 60.16L277.032 57.616C277.44 56.848 277.896 56.104 278.376 55.408C278.424 55.36 278.448 55.336 278.496 55.288C278.52 55.264 278.544 55.264 278.592 55.264C278.64 55.264 278.664 55.288 278.664 55.36C278.664 55.384 278.664 55.408 278.664 55.456C278.424 56.32 278.208 57.76 278.208 58.432C278.208 59.272 278.424 59.656 279.312 60.208C280.416 60.904 280.608 61.024 280.968 61.024C281.448 61.024 281.976 60.616 282.792 59.656C284.088 58.096 285.168 56.08 286.176 53.44L286.368 52.912L286.68 52.072C286.752 51.928 286.776 51.736 286.776 51.592C286.776 51.28 286.632 51.04 286.128 50.584C285.576 50.032 285.384 49.936 285.048 49.936C284.208 49.936 283.248 50.512 283.248 51.04C283.248 51.088 283.272 51.232 283.296 51.4C283.344 51.544 283.344 51.688 283.344 51.856C283.344 52.672 282.912 53.944 282.168 55.24C281.76 55.984 281.616 56.152 281.472 56.152C281.4 56.152 281.328 56.08 281.328 56.008C281.328 55.84 281.52 54.976 281.712 54.304L282.24 52.312C282.312 52.096 282.36 51.808 282.36 51.64C282.36 51.208 282.144 50.896 281.568 50.488C280.968 50.104 280.488 49.912 280.128 49.912C279.696 49.912 279.264 50.128 278.736 50.632C278.16 51.208 277.344 52.264 276.72 53.272C276.384 53.848 275.736 54.952 275.52 55.36C275.28 55.816 275.184 55.936 275.088 55.936C275.016 55.936 274.992 55.888 274.992 55.816C274.992 55.744 275.064 55.504 275.184 55.12L275.376 54.52C275.568 53.944 275.88 53.176 276.288 52.312C276.504 51.832 276.576 51.64 276.576 51.424C276.576 51.208 276.504 51.064 276.168 50.68L275.808 50.272C275.568 49.984 275.328 49.864 274.992 49.864ZM286.417 57.424C286.417 59.512 287.737 61.024 289.609 61.024C290.689 61.024 291.817 60.544 292.609 59.776C293.473 58.888 294.097 57.664 294.097 56.824C294.097 56.464 293.881 56.176 293.569 56.176C293.329 56.176 293.281 56.2 292.633 56.848C291.889 57.592 291.241 57.976 290.737 57.976C290.233 57.976 289.873 57.544 289.873 56.92C289.873 56.056 290.569 54.592 291.529 53.44C291.721 53.2 291.865 53.104 291.985 53.104C292.081 53.104 292.153 53.2 292.153 53.344C292.153 53.416 292.153 53.488 292.129 53.56L292.009 53.992C291.985 54.064 291.985 54.16 291.985 54.232C291.985 54.352 292.057 54.544 292.201 54.784C292.417 55.072 292.609 55.192 292.969 55.192C294.049 55.192 294.817 54.064 294.817 52.48C294.817 50.944 293.809 49.912 292.297 49.912C289.537 49.912 286.417 53.896 286.417 57.424ZM294.995 57.64C294.995 59.656 296.339 61.096 298.211 61.096C301.115 61.096 304.139 57.328 304.139 53.68C304.139 53.368 304.115 53.056 304.043 52.744L303.827 51.736C303.659 51.016 303.563 50.8 303.299 50.488C302.843 49.984 302.147 49.696 301.427 49.696C300.227 49.696 298.643 50.632 297.371 52.096C295.931 53.728 294.995 55.912 294.995 57.64ZM298.403 56.704C298.403 56.2 298.715 55.456 299.219 54.688C299.795 53.776 300.347 53.272 300.755 53.272C301.019 53.272 301.187 53.512 301.187 53.872C301.187 54.376 300.923 55.144 300.491 55.864C299.939 56.8 299.411 57.304 298.931 57.328C298.643 57.328 298.403 57.064 298.403 56.704ZM305.987 46.72C305.987 46.552 305.915 46.312 305.771 45.976C305.651 45.76 305.579 45.568 305.507 45.4L305.339 44.992C305.171 44.608 304.907 44.416 304.595 44.416C304.163 44.416 303.539 44.8 302.627 45.64C301.691 46.504 301.259 47.104 301.259 47.608C301.259 47.872 301.475 48.208 301.787 48.496C302.003 48.688 302.171 48.76 302.339 48.76C302.459 48.76 302.579 48.712 302.723 48.592L303.227 48.184C303.635 47.848 304.163 47.584 304.619 47.464L305.483 47.248C305.795 47.176 305.987 46.96 305.987 46.72ZM307.922 49.864C307.418 49.864 306.842 50.08 306.482 50.392C306.242 50.608 306.146 50.752 306.098 51.16C306.002 51.736 305.954 51.904 305.714 52.6C305.426 53.464 305.282 54.04 305.138 54.736C304.898 55.888 304.73 57.232 304.73 57.976C304.73 59.056 304.922 59.488 305.714 60.04C306.794 60.808 307.082 60.952 307.466 60.952C307.97 60.952 308.33 60.712 308.618 60.16L309.962 57.616C310.37 56.848 310.826 56.104 311.306 55.408C311.354 55.36 311.378 55.336 311.426 55.288C311.45 55.264 311.474 55.264 311.522 55.264C311.57 55.264 311.594 55.288 311.594 55.36C311.594 55.384 311.594 55.408 311.594 55.456C311.354 56.32 311.138 57.76 311.138 58.432C311.138 59.272 311.354 59.656 312.242 60.208C313.346 60.904 313.538 61.024 313.898 61.024C314.378 61.024 314.906 60.616 315.722 59.656C317.018 58.096 318.098 56.08 319.106 53.44L319.298 52.912L319.61 52.072C319.682 51.928 319.706 51.736 319.706 51.592C319.706 51.28 319.562 51.04 319.058 50.584C318.506 50.032 318.314 49.936 317.978 49.936C317.138 49.936 316.178 50.512 316.178 51.04C316.178 51.088 316.202 51.232 316.226 51.4C316.274 51.544 316.274 51.688 316.274 51.856C316.274 52.672 315.842 53.944 315.098 55.24C314.69 55.984 314.546 56.152 314.402 56.152C314.33 56.152 314.258 56.08 314.258 56.008C314.258 55.84 314.45 54.976 314.642 54.304L315.17 52.312C315.242 52.096 315.29 51.808 315.29 51.64C315.29 51.208 315.074 50.896 314.498 50.488C313.898 50.104 313.418 49.912 313.058 49.912C312.626 49.912 312.194 50.128 311.666 50.632C311.09 51.208 310.274 52.264 309.65 53.272C309.314 53.848 308.666 54.952 308.45 55.36C308.21 55.816 308.114 55.936 308.018 55.936C307.946 55.936 307.922 55.888 307.922 55.816C307.922 55.744 307.994 55.504 308.114 55.12L308.306 54.52C308.498 53.944 308.81 53.176 309.218 52.312C309.434 51.832 309.506 51.64 309.506 51.424C309.506 51.208 309.434 51.064 309.098 50.68L308.738 50.272C308.498 49.984 308.258 49.864 307.922 49.864Z" fill="white"/>
</svg>
