<svg width="415" height="71" viewBox="0 0 415 71" fill="none" xmlns="http://www.w3.org/2000/svg">
<path d="M3.112 51.872C1.192 55.04 0.328 57.248 0.328 59.168C0.328 63.2 4.936 68 8.872 68C11.176 68 11.944 67.04 13.192 62.816C13.672 61.28 14.344 59.648 15.112 57.92C16.264 55.52 16.84 54.752 17.896 54.368C19.72 53.696 23.944 53.12 29.32 52.832C29.128 54.944 29.032 56.384 29.032 57.92C29.032 60.896 29.512 62.528 31.048 64.16C33.736 67.04 35.368 67.904 37.672 67.904C41.224 67.904 43.912 65.888 43.912 63.2C43.912 62.816 43.816 62.048 43.72 61.28C43.528 59.552 43.432 58.016 43.432 56.768C43.432 52.544 44.008 46.4 44.776 41.312C46.024 33.824 48.616 23.744 51.208 16.064C52.264 13.184 52.456 12.224 52.456 11.36C52.456 10.4 51.976 9.344 50.92 8.288L49.288 6.65599C45.832 3.2 45.448 2.912 43.528 2.912C41.896 2.912 40.552 3.488 38.44 5.024C34.6 7.808 28.744 13.856 23.656 20.192C19.24 25.568 12.904 34.496 10.312 38.912C7.432 43.616 7.24 43.904 4.936 44.672C2.632 45.44 1.96 46.112 1.96 47.744C1.96 48.896 2.248 49.76 3.112 51.872ZM31.144 40.352C28.936 40.736 27.208 41.024 26.056 41.216C25.864 41.216 25.672 41.216 25.48 41.216C25.096 41.216 24.808 41.024 24.808 40.736C24.808 40.256 25.096 39.776 26.056 38.24L29.032 33.824C29.224 33.536 29.704 32.96 31.048 31.232C31.528 30.56 32.008 29.888 32.584 29.312C33.256 28.352 33.352 28.256 33.544 28.064C34.024 27.584 34.216 27.392 34.6 27.392C34.792 27.392 34.984 27.584 34.984 27.776C34.984 27.968 34.888 28.256 34.696 28.832C32.584 34.304 32.008 36.224 31.144 40.352ZM51.2305 54.176C51.2305 62.528 55.6465 67.904 62.4625 67.904C67.1665 67.904 71.8705 64.928 75.8065 59.552C76.3825 58.784 76.6705 58.592 77.0545 58.592C77.4385 58.592 77.6305 58.88 77.7265 59.552C77.8225 64.352 81.3745 68 85.8865 68C87.9025 68 88.8625 66.944 89.1505 64.352C90.4945 51.872 95.6785 36.032 102.783 23.072L107.967 13.568C108.927 11.84 109.311 10.88 109.311 10.016C109.311 9.536 109.119 9.152 108.639 8.576C108.062 7.712 107.199 6.56 106.815 6.08C105.471 4.64 104.223 3.96799 102.399 3.96799C98.0785 3.96799 95.3905 7.232 89.0545 20.096C86.3665 25.664 83.8705 30.56 81.6625 34.592C78.4945 40.544 75.3265 45.536 73.0225 48.224C70.8145 50.72 69.0865 51.968 67.8385 51.968C66.6865 51.968 66.0145 51.104 66.0145 49.568C66.0145 47.552 66.7825 44.576 68.1265 40.832C71.3905 32.096 75.5185 24.896 83.2945 14.528C84.6385 12.8 85.2145 11.648 85.2145 10.88C85.2145 9.92 84.4465 8.768 82.7185 6.848C80.7025 4.64 79.5505 4.064 77.4385 4.064C73.5025 4.064 70.3345 5.792 70.0465 8.192C69.8545 9.824 69.2785 10.784 66.3985 15.104C61.4065 22.4 58.1425 28.64 55.3585 36.032C52.6705 43.328 51.2305 49.376 51.2305 54.176ZM110.359 58.496C110.359 60.992 111.415 63.104 114.103 65.888C115.543 67.328 116.791 68 118.327 68C121.687 68 125.239 65.312 125.335 62.816V60.896C125.335 57.536 126.775 51.296 128.983 44.96C131.383 38.144 133.975 32.096 138.007 24.032C139.831 20.384 140.599 19.136 141.175 18.56C142.039 17.792 144.247 17.216 146.935 17.216C148.375 17.216 149.719 17.408 150.967 17.696C151.351 17.792 151.735 17.792 151.927 17.792C153.271 17.792 154.423 15.776 154.423 13.184C154.423 7.712 150.679 4.064 145.015 4.064C143.287 4.064 140.983 4.352 135.607 5.408L128.599 6.65599C123.031 7.712 121.015 8 119.095 8C117.751 8 116.599 7.904 114.967 7.616C114.679 7.51999 114.487 7.51999 114.295 7.51999C112.855 7.51999 111.799 9.44 111.799 12.128C111.799 17.6 114.967 21.152 119.863 21.152C120.823 21.152 121.015 21.056 122.839 20.768C123.031 20.768 123.223 20.672 123.415 20.672C123.895 20.672 124.183 21.056 124.183 21.728C124.183 22.112 124.087 22.592 123.703 23.168L121.111 28.544C117.943 35.072 115.159 41.792 112.471 49.568C111.127 53.312 110.359 56.864 110.359 58.496ZM143.097 50.816C143.097 61.088 149.145 68.48 157.785 68.48C167.385 68.48 177.465 60.704 184.665 47.936C189.177 39.776 191.577 31.616 191.577 24.416C191.577 22.208 191.385 20.288 191 18.848L190.233 15.584C190.137 15.104 189.945 14.24 189.753 13.28C188.985 9.72799 188.312 8.384 186.009 6.464C183.609 4.44799 181.689 3.584 179.385 3.584C175.737 3.584 171.033 5.888 165.465 10.4C152.793 20.48 143.097 38.048 143.097 50.816ZM157.977 48.512C157.977 42.656 163.353 31.712 169.593 24.704C173.433 20.288 176.313 18.08 178.041 18.08C179.097 18.08 179.865 19.04 179.865 20.576C179.865 25.376 176.505 34.496 172.089 41.6C168.153 48.032 163.449 52.544 160.761 52.544C159.129 52.544 157.977 50.816 157.977 48.512ZM210.877 36.8C208.093 36.8 203.197 37.376 199.837 37.952C194.461 39.008 192.925 39.872 192.925 41.888C192.925 42.464 193.021 43.136 193.213 43.808L194.269 46.496L195.037 48.704C195.613 50.432 196.669 51.296 197.917 51.296C198.685 51.296 198.877 51.296 203.677 49.952C206.941 48.992 209.149 48.608 210.877 48.608C212.221 48.608 213.853 48.8 214.909 49.184C215.293 49.28 215.677 49.376 215.869 49.376C217.021 49.376 217.789 47.84 217.789 45.536C217.789 39.68 215.485 36.8 210.877 36.8ZM232.723 29.024C232.723 33.728 234.739 38.048 238.867 42.08L242.131 45.344C243.859 47.072 244.627 48.416 244.627 49.856C244.627 52.544 241.939 54.56 238.483 54.56C235.891 54.56 234.739 53.888 232.147 50.624C230.707 48.8 229.555 48.128 227.635 48.128C223.987 48.128 221.203 51.2 221.203 55.424C221.203 62.528 228.787 68.096 238.675 68.096C250.579 68.096 260.275 60.32 260.275 50.624C260.275 46.208 258.931 43.904 253.267 38.432C248.467 33.824 247.123 31.52 247.123 28.544C247.123 25.952 248.659 22.976 251.539 20.48C253.267 18.944 254.803 18.08 255.955 18.08C256.627 18.08 257.011 18.464 257.011 19.04C257.011 19.616 256.723 20.576 255.955 22.112C254.995 24.128 254.611 25.088 254.611 25.952C254.611 26.816 255.379 29.024 256.243 31.04C257.203 33.152 258.643 34.112 260.755 34.112C263.059 34.112 265.363 32.864 266.611 30.848C268.531 27.872 269.683 23.744 269.683 19.904C269.683 15.872 268.339 11.936 265.843 8.48C263.539 5.31199 261.043 3.96799 257.683 3.96799C253.555 3.96799 248.659 5.984 243.955 9.72799C236.275 15.68 232.723 21.92 232.723 29.024Z" fill="black"/>
<path d="M288.918 1V69" stroke="black" stroke-width="3"/>
<path d="M328.641 2.58298C328.641 3.05898 328.193 3.59098 327.017 4.51498C325.953 5.32698 325.281 5.66298 324.805 5.66298C324.609 5.66298 324.357 5.55098 324.105 5.35498C323.769 5.07498 323.517 4.65498 323.517 4.37498C323.517 4.20698 323.601 4.09498 323.769 3.89898C324.637 2.97498 324.917 2.63898 325.113 2.24698L325.617 1.23898C325.841 0.846976 326.093 0.650977 326.401 0.650977C326.765 0.650977 326.933 0.762977 327.801 1.46298C328.445 1.99498 328.641 2.24698 328.641 2.58298Z" fill="black"/>
<path d="M303.812 14.988C303.812 17.984 305.576 20.14 308.096 20.14C310.896 20.14 313.836 17.872 315.936 14.148C317.252 11.768 317.952 9.388 317.952 7.288C317.952 6.644 317.896 6.084 317.784 5.664L317.56 4.712C317.532 4.572 317.476 4.32 317.42 4.04C317.196 3.004 317 2.612 316.328 2.052C315.628 1.464 315.068 1.212 314.396 1.212C313.332 1.212 311.96 1.884 310.336 3.2C306.64 6.14 303.812 11.264 303.812 14.988ZM308.152 14.316C308.152 12.608 309.72 9.416 311.54 7.372C312.66 6.084 313.5 5.44 314.004 5.44C314.312 5.44 314.536 5.72 314.536 6.168C314.536 7.568 313.556 10.228 312.268 12.3C311.12 14.176 309.748 15.492 308.964 15.492C308.488 15.492 308.152 14.988 308.152 14.316ZM325.261 16.668C325.261 15.856 324.953 15.38 323.777 14.344C322.685 13.364 322.377 12.944 322.377 12.356C322.377 11.936 322.601 11.544 322.993 11.208C323.301 10.956 323.637 10.788 323.833 10.788C324.029 10.788 324.169 10.928 324.169 11.096C324.169 11.18 324.141 11.264 323.973 11.432C323.665 11.824 323.609 11.936 323.609 12.132C323.609 12.356 323.693 12.524 324.085 13.084C324.449 13.644 324.729 13.812 325.205 13.812C326.241 13.812 327.333 12.44 327.333 11.068C327.333 10.872 327.305 10.676 327.249 10.48L327.025 9.78C326.969 9.612 326.913 9.388 326.857 9.136C326.521 7.652 325.905 7.12 324.393 7.12C321.341 7.12 318.485 9.5 318.485 12.076C318.485 13.028 318.849 13.644 319.997 14.68L320.557 15.156C321.005 15.576 321.173 15.828 321.173 16.08C321.173 16.416 320.837 16.696 320.445 16.696C320.193 16.696 320.025 16.612 319.857 16.36L319.577 15.968C319.185 15.408 318.877 15.24 318.317 15.24C317.365 15.24 316.665 15.94 316.665 16.892C316.665 18.684 318.429 20 320.837 20C323.385 20 325.261 18.6 325.261 16.668ZM332.127 7.036C331.175 7.036 330.111 7.68 330.027 8.296L329.943 9.024C329.915 9.164 329.831 9.444 329.663 9.836C328.739 11.992 328.179 13.616 327.703 15.324C327.339 16.556 327.227 17.172 327.227 17.648C327.227 18.152 327.395 18.572 327.787 19.02C328.403 19.748 328.767 20 329.243 20C330.251 20 331.091 19.3 331.091 18.488C331.091 18.32 331.091 18.236 331.091 18.18C331.091 17.396 331.259 16.472 331.595 15.548C332.435 13.252 333.863 11.46 334.815 11.46C335.011 11.46 335.235 11.572 335.347 11.768L335.683 12.272C335.795 12.412 335.907 12.496 336.047 12.496C336.411 12.496 336.831 12.244 337.307 11.768C338.119 10.956 338.595 9.892 338.595 8.884C338.595 7.82 337.867 7.036 336.915 7.036C336.243 7.036 335.599 7.428 334.759 8.408L334.003 9.304C333.863 9.472 333.779 9.528 333.723 9.528C333.639 9.528 333.583 9.5 333.583 9.416C333.583 9.36 333.611 9.276 333.667 9.164C333.779 8.912 333.835 8.744 333.835 8.604C333.835 8.324 333.555 7.904 333.023 7.428C332.743 7.176 332.463 7.036 332.127 7.036ZM337.538 16.08C337.538 18.432 339.106 20.112 341.29 20.112C344.678 20.112 348.206 15.716 348.206 11.46C348.206 11.096 348.178 10.732 348.094 10.368L347.842 9.192C347.646 8.352 347.534 8.1 347.226 7.736C346.694 7.148 345.882 6.812 345.042 6.812C343.642 6.812 341.794 7.904 340.31 9.612C338.63 11.516 337.538 14.064 337.538 16.08ZM341.514 14.988C341.514 14.4 341.878 13.532 342.466 12.636C343.138 11.572 343.782 10.984 344.258 10.984C344.566 10.984 344.762 11.264 344.762 11.684C344.762 12.272 344.454 13.168 343.95 14.008C343.306 15.1 342.69 15.688 342.13 15.716C341.794 15.716 341.514 15.408 341.514 14.988ZM348.476 16.22C348.476 18.348 349.82 20.028 351.584 20.028C352.788 20.028 353.6 19.608 354.944 18.292C355 18.208 355.056 18.18 355.112 18.18C355.224 18.18 355.28 18.264 355.392 18.544C355.728 19.608 356.26 20.028 357.24 20.028C358.528 20.028 359.62 19.384 360.936 17.872C362.308 16.276 363.092 14.904 363.092 14.092C363.092 13.42 362.644 12.636 362.252 12.636C362.084 12.636 361.944 12.748 361.72 13.112L361.132 13.98C360.46 14.96 359.62 15.744 359.256 15.744C359.088 15.744 358.976 15.604 358.976 15.38C358.976 15.1 359.144 14.568 359.676 13.112C360.236 11.572 360.768 10.396 361.692 8.52C362.868 6.14 363.372 5.188 363.736 4.544C364.296 3.648 364.352 3.48 364.352 3.172C364.352 2.976 364.268 2.752 364.156 2.612L363.596 1.996L363.288 1.604C363.064 1.38 362.672 1.24 362.28 1.24C361.776 1.24 361.216 1.436 360.712 1.8C360.432 2.024 360.348 2.136 360.264 2.5C360.208 2.864 360.152 3.032 360.068 3.256C359.928 3.592 359.536 4.432 359.116 5.244L358.304 6.896C357.884 7.792 357.828 7.876 357.688 7.876C357.604 7.876 357.548 7.848 357.464 7.792L357.1 7.512C356.624 7.148 356.176 7.008 355.616 7.008C354.244 7.008 352.508 8.156 350.968 10.088C349.456 11.964 348.476 14.4 348.476 16.22ZM355.392 14.064C354.944 14.652 354.804 14.82 354.552 15.1C354.076 15.66 353.488 16.024 353.096 16.024C352.816 16.024 352.648 15.8 352.648 15.436C352.648 14.708 353.348 13.112 354.104 12.104C354.804 11.208 355.308 10.816 355.728 10.816C356.064 10.816 356.26 11.04 356.26 11.404C356.26 11.852 355.896 12.944 355.392 14.064ZM367.44 14.904C367.86 14.96 368.084 14.96 368.392 14.96C371.36 14.96 373.656 12.832 373.656 10.144C373.656 8.268 372.48 6.98 370.744 6.98C367.216 6.98 363.296 11.656 363.296 15.856C363.296 18.348 364.976 20.084 367.356 20.084C368.784 20.084 370.044 19.468 371.136 18.264C371.948 17.396 372.48 16.332 372.48 15.632C372.48 15.24 372.228 14.932 371.864 14.932C371.612 14.932 371.472 15.044 370.772 15.66C370.016 16.332 369.372 16.668 368.7 16.668C367.972 16.668 367.384 16.08 367.384 15.324C367.384 15.212 367.412 15.072 367.44 14.904ZM368.42 12.3C369.12 11.124 369.96 10.312 370.492 10.312C370.716 10.312 370.856 10.452 370.856 10.676C370.856 11.068 370.464 11.628 369.96 11.964C369.624 12.216 369.232 12.3 368.672 12.3C368.616 12.3 368.56 12.3 368.42 12.3ZM373.602 17.704C373.602 18.292 373.742 18.572 374.246 19.188C374.778 19.832 375.058 20 375.59 20C376.626 20 377.494 19.3 377.494 18.432C377.494 18.348 377.494 18.208 377.466 18.012C377.466 17.928 377.466 17.844 377.466 17.788C377.466 16.808 377.858 15.688 378.502 14.736C378.866 14.204 379.286 13.812 379.538 13.812C379.622 13.812 379.678 13.868 379.678 13.924C379.678 13.952 379.678 13.952 379.594 14.232C379.37 15.016 379.23 15.912 379.23 16.64C379.23 18.628 380.378 20.028 381.974 20.028C383.178 20.028 384.354 19.244 385.53 17.592C386.51 16.248 387.21 14.876 387.21 14.316C387.21 13.952 387.042 13.364 386.79 13.028C386.65 12.804 386.51 12.692 386.342 12.692C386.146 12.692 385.978 12.86 385.726 13.196C384.578 14.932 384.018 15.492 383.514 15.492C383.29 15.492 383.178 15.296 383.178 14.904C383.178 14.4 383.234 13.7 383.402 12.86C383.57 11.964 383.654 11.6 383.766 11.432C383.906 11.18 384.438 10.984 384.886 10.984C385.026 10.984 385.166 10.984 385.334 11.04C385.474 11.068 385.586 11.096 385.642 11.096C385.894 11.096 386.23 10.872 386.538 10.508C386.958 10.004 387.266 9.304 387.266 8.884C387.266 7.876 386.314 7.008 385.25 7.008C384.018 7.008 382.422 7.792 380.77 9.276C380.546 9.472 380.518 9.5 380.462 9.5C380.378 9.5 380.322 9.444 380.322 9.36C380.322 9.248 380.35 9.164 380.462 8.94C380.518 8.856 380.686 8.548 380.938 8.072C381.414 7.12 381.974 6.112 382.618 5.02C383.262 3.928 383.43 3.592 383.43 3.256C383.43 2.948 383.262 2.696 382.674 2.024C382.114 1.408 381.862 1.268 381.358 1.268C380.91 1.268 380.322 1.436 379.874 1.688C379.398 1.94 379.314 2.052 379.202 2.752C379.118 3.284 378.866 3.872 378.278 4.992C377.074 7.316 375.87 10.004 374.89 12.664C374.078 14.876 373.602 16.752 373.602 17.704ZM306.164 33.632C306.164 35.004 306.752 36.264 307.956 37.44L308.908 38.392C309.412 38.896 309.636 39.288 309.636 39.708C309.636 40.492 308.852 41.08 307.844 41.08C307.088 41.08 306.752 40.884 305.996 39.932C305.576 39.4 305.24 39.204 304.68 39.204C303.616 39.204 302.804 40.1 302.804 41.332C302.804 43.404 305.016 45.028 307.9 45.028C311.372 45.028 314.2 42.76 314.2 39.932C314.2 38.644 313.808 37.972 312.156 36.376C310.756 35.032 310.364 34.36 310.364 33.492C310.364 32.736 310.812 31.868 311.652 31.14C312.156 30.692 312.604 30.44 312.94 30.44C313.136 30.44 313.248 30.552 313.248 30.72C313.248 30.888 313.164 31.168 312.94 31.616C312.66 32.204 312.548 32.484 312.548 32.736C312.548 32.988 312.772 33.632 313.024 34.22C313.304 34.836 313.724 35.116 314.34 35.116C315.012 35.116 315.684 34.752 316.048 34.164C316.608 33.296 316.944 32.092 316.944 30.972C316.944 29.796 316.552 28.648 315.824 27.64C315.152 26.716 314.424 26.324 313.444 26.324C312.24 26.324 310.812 26.912 309.44 28.004C307.2 29.74 306.164 31.56 306.164 33.632ZM321.288 35.676C321.288 35.732 321.232 35.788 321.092 35.9L320.168 36.656C316.612 39.484 315.156 41.136 315.156 42.284C315.156 42.704 315.212 42.872 315.884 43.74C316.752 44.888 316.892 45.028 317.368 45.028C317.508 45.028 317.704 44.972 317.928 44.944L319.468 44.552C319.944 44.44 320.532 44.384 321.204 44.384C321.848 44.384 322.352 44.468 322.828 44.608L323.248 44.748C323.36 44.776 323.444 44.804 323.528 44.804C323.64 44.804 323.752 44.748 323.92 44.664C324.564 44.272 324.984 43.544 324.984 42.816C324.984 41.724 324.116 40.968 322.94 40.968C322.604 40.968 322.184 40.996 321.792 41.08C321.4 41.164 321.316 41.192 321.176 41.192C321.064 41.192 320.98 41.136 320.98 41.052C320.98 40.94 321.064 40.772 321.288 40.548C321.624 40.156 322.66 39.204 323.528 38.504L325.684 36.768C326.636 35.984 326.916 35.564 326.916 34.948C326.916 34.528 326.692 33.66 326.44 33.044C326.16 32.344 325.74 32.092 324.928 32.092C324.676 32.092 324.256 32.12 323.864 32.148L322.128 32.288L320.756 32.4C320.476 32.428 320.196 32.428 319.916 32.428C319.468 32.428 319.132 32.4 318.656 32.316C318.6 32.288 318.544 32.288 318.488 32.288C317.984 32.288 317.312 33.184 317.312 33.94C317.312 34.976 318.18 35.76 319.3 35.76C319.552 35.76 319.972 35.704 320.336 35.648C320.952 35.536 321.036 35.536 321.12 35.536C321.232 35.536 321.288 35.592 321.288 35.676ZM326.215 42.704C326.215 43.292 326.355 43.572 326.859 44.188C327.391 44.832 327.671 45 328.203 45C329.239 45 330.107 44.3 330.107 43.432C330.107 43.348 330.107 43.208 330.079 43.012C330.079 42.928 330.079 42.844 330.079 42.788C330.079 41.808 330.471 40.688 331.115 39.736C331.479 39.204 331.899 38.812 332.151 38.812C332.235 38.812 332.291 38.868 332.291 38.924C332.291 38.952 332.291 38.952 332.207 39.232C331.983 40.016 331.843 40.912 331.843 41.64C331.843 43.628 332.991 45.028 334.587 45.028C335.791 45.028 336.967 44.244 338.143 42.592C339.123 41.248 339.823 39.876 339.823 39.316C339.823 38.952 339.655 38.364 339.403 38.028C339.263 37.804 339.123 37.692 338.955 37.692C338.759 37.692 338.591 37.86 338.339 38.196C337.191 39.932 336.631 40.492 336.127 40.492C335.903 40.492 335.791 40.296 335.791 39.904C335.791 39.4 335.847 38.7 336.015 37.86C336.183 36.964 336.267 36.6 336.379 36.432C336.519 36.18 337.051 35.984 337.499 35.984C337.639 35.984 337.779 35.984 337.947 36.04C338.087 36.068 338.199 36.096 338.255 36.096C338.507 36.096 338.843 35.872 339.151 35.508C339.571 35.004 339.879 34.304 339.879 33.884C339.879 32.876 338.927 32.008 337.863 32.008C336.631 32.008 335.035 32.792 333.383 34.276C333.159 34.472 333.131 34.5 333.075 34.5C332.991 34.5 332.935 34.444 332.935 34.36C332.935 34.248 332.963 34.164 333.075 33.94C333.131 33.856 333.299 33.548 333.551 33.072C334.027 32.12 334.587 31.112 335.231 30.02C335.875 28.928 336.043 28.592 336.043 28.256C336.043 27.948 335.875 27.696 335.287 27.024C334.727 26.408 334.475 26.268 333.971 26.268C333.523 26.268 332.935 26.436 332.487 26.688C332.011 26.94 331.927 27.052 331.815 27.752C331.731 28.284 331.479 28.872 330.891 29.992C329.687 32.316 328.483 35.004 327.503 37.664C326.691 39.876 326.215 41.752 326.215 42.704ZM340.245 41.08C340.245 43.432 341.813 45.112 343.997 45.112C347.385 45.112 350.913 40.716 350.913 36.46C350.913 36.096 350.885 35.732 350.801 35.368L350.549 34.192C350.353 33.352 350.241 33.1 349.933 32.736C349.401 32.148 348.589 31.812 347.749 31.812C346.349 31.812 344.501 32.904 343.017 34.612C341.337 36.516 340.245 39.064 340.245 41.08ZM344.221 39.988C344.221 39.4 344.585 38.532 345.173 37.636C345.845 36.572 346.489 35.984 346.965 35.984C347.273 35.984 347.469 36.264 347.469 36.684C347.469 37.272 347.161 38.168 346.657 39.008C346.013 40.1 345.397 40.688 344.837 40.716C344.501 40.716 344.221 40.408 344.221 39.988ZM358.799 26.464C358.379 26.464 357.791 26.632 357.343 26.884C356.979 27.108 356.895 27.192 356.783 27.64C356.643 28.2 356.335 28.9 355.467 30.552C354.487 32.372 353.311 34.892 352.471 36.88C351.519 39.176 351.071 40.716 351.071 41.976C351.071 43.768 352.107 45 353.563 45C354.823 45 356.083 44.216 357.511 42.564C358.631 41.22 359.359 39.904 359.359 39.176C359.359 38.504 358.939 37.832 358.519 37.832C358.295 37.832 358.267 37.86 357.483 38.924C356.671 40.044 355.831 40.856 355.467 40.856C355.299 40.856 355.215 40.716 355.215 40.492C355.215 39.96 355.887 38.196 357.091 35.676C358.071 33.548 359.639 30.664 360.451 29.432C360.787 28.928 360.871 28.704 360.871 28.424C360.871 28.144 360.731 27.892 360.255 27.332C359.695 26.66 359.331 26.464 358.799 26.464ZM363.94 39.904C364.36 39.96 364.584 39.96 364.892 39.96C367.86 39.96 370.156 37.832 370.156 35.144C370.156 33.268 368.98 31.98 367.244 31.98C363.716 31.98 359.796 36.656 359.796 40.856C359.796 43.348 361.476 45.084 363.856 45.084C365.284 45.084 366.544 44.468 367.636 43.264C368.448 42.396 368.98 41.332 368.98 40.632C368.98 40.24 368.728 39.932 368.364 39.932C368.112 39.932 367.972 40.044 367.272 40.66C366.516 41.332 365.872 41.668 365.2 41.668C364.472 41.668 363.884 41.08 363.884 40.324C363.884 40.212 363.912 40.072 363.94 39.904ZM364.92 37.3C365.62 36.124 366.46 35.312 366.992 35.312C367.216 35.312 367.356 35.452 367.356 35.676C367.356 36.068 366.964 36.628 366.46 36.964C366.124 37.216 365.732 37.3 365.172 37.3C365.116 37.3 365.06 37.3 364.92 37.3ZM375.002 32.064C374.554 32.064 373.854 32.316 373.35 32.652C372.986 32.904 372.902 33.072 372.846 33.52C372.79 34.136 372.706 34.36 372.538 34.836L371.334 37.776C370.718 39.344 370.102 41.864 370.102 42.816C370.102 43.376 370.242 43.656 370.83 44.272C371.446 44.888 371.642 45.028 372.062 45.028C373.126 45.028 373.966 44.328 373.966 43.46C373.966 43.404 373.938 43.264 373.938 43.18C373.938 43.04 373.938 42.928 373.938 42.872C373.938 41.696 374.414 40.268 375.338 38.728C376.01 37.636 376.654 36.964 377.074 36.964C377.186 36.964 377.27 37.048 377.27 37.188C377.27 37.384 377.214 37.552 376.738 38.756C376.206 40.1 375.982 41.108 375.982 42.032C375.982 43.796 377.018 45 378.53 45C379.762 45 381.05 44.244 382.282 42.788C383.626 41.192 384.438 39.82 384.438 39.148C384.438 38.84 384.27 38.364 384.018 38.028C383.878 37.86 383.738 37.748 383.598 37.748C383.374 37.748 383.206 37.916 382.842 38.448C382.002 39.708 380.938 40.772 380.49 40.772C380.322 40.772 380.154 40.632 380.154 40.436C380.154 40.24 380.266 39.932 380.462 39.372C380.826 38.42 381.162 37.664 382.03 35.872C382.422 35.116 382.534 34.752 382.534 34.36C382.534 33.912 382.366 33.632 381.806 32.96C381.134 32.176 380.882 32.036 380.35 32.036C379.678 32.036 378.894 32.54 377.522 33.912C376.878 34.528 376.738 34.64 376.626 34.64C376.542 34.64 376.486 34.556 376.486 34.444C376.486 34.36 376.514 34.248 376.598 33.968C376.654 33.828 376.682 33.716 376.682 33.604C376.682 33.408 376.514 33.1 376.066 32.624C375.702 32.26 375.366 32.064 375.002 32.064ZM388.878 28.956C388.878 29.432 389.074 29.796 389.494 30.16L390.25 30.776C390.81 31.252 391.062 31.364 391.538 31.364C392.546 31.364 393.386 30.524 393.386 29.516C393.386 28.844 393.246 28.592 392.35 27.864L391.874 27.5C391.482 27.164 391.146 27.024 390.726 27.024C389.746 27.024 388.878 27.92 388.878 28.956ZM389.606 32.092C389.018 32.092 388.29 32.316 387.87 32.652C387.562 32.876 387.478 33.016 387.422 33.38C387.31 34.108 387.254 34.304 386.022 37.244C385.07 39.456 384.678 40.856 384.678 41.976C384.678 43.796 385.686 45 387.17 45C388.262 45 389.214 44.496 390.362 43.376C391.846 41.892 393.05 40.016 393.05 39.148C393.05 38.784 392.826 38.308 392.574 38.028C392.434 37.888 392.294 37.804 392.154 37.804C391.986 37.804 391.818 38 391.398 38.56C390.418 39.988 389.606 40.772 389.13 40.772C388.962 40.772 388.822 40.66 388.822 40.464C388.822 40.268 388.934 39.876 389.13 39.4C389.662 37.972 390.418 36.292 391.006 35.256C391.426 34.5 391.538 34.22 391.538 33.94C391.538 33.716 391.426 33.52 391.062 33.072C391.034 33.016 390.922 32.904 390.782 32.708C390.446 32.26 390.11 32.092 389.606 32.092ZM393.374 41.22C393.374 43.376 394.746 45.028 396.538 45.028C397.574 45.028 398.442 44.58 399.562 43.488C399.786 43.264 399.898 43.208 399.982 43.208C400.094 43.208 400.122 43.264 400.234 43.544C400.542 44.524 401.158 45 402.054 45C402.81 45 403.65 44.692 404.322 44.16C405.554 43.236 406.758 41.808 407.682 40.184C407.906 39.792 407.99 39.484 407.99 39.232C407.99 38.896 407.794 38.392 407.542 38.056C407.402 37.832 407.262 37.748 407.15 37.748C407.066 37.748 406.954 37.804 406.87 37.86C406.758 37.972 406.73 38 406.03 38.98C405.162 40.128 404.462 40.772 404.014 40.772C403.846 40.772 403.734 40.632 403.734 40.436C403.734 40.1 403.958 39.4 404.462 38.28L405.134 36.796C405.358 36.32 405.442 35.984 405.442 35.648C405.442 35.2 405.134 34.836 404.518 34.528L403.426 34.024C403.202 33.912 402.978 33.744 402.782 33.492L402.334 32.932C401.858 32.344 401.298 32.064 400.542 32.064C399.114 32.064 397.434 33.1 395.978 34.892C394.382 36.796 393.374 39.288 393.374 41.22ZM397.518 40.38C397.574 39.484 398.246 38.028 399.198 36.824C399.758 36.096 400.262 35.732 400.626 35.732C400.962 35.732 401.158 35.984 401.158 36.376C401.158 37.104 400.626 38.392 399.898 39.4C399.198 40.38 398.442 40.996 397.966 40.996C397.714 40.996 397.49 40.716 397.518 40.38ZM311.4 51.324C310.392 51.324 309.356 51.94 309.3 52.556L309.272 52.976C309.244 53.2 309.076 53.592 308.712 54.348C308.432 54.908 308.012 55.748 307.648 56.476C306.472 58.744 305.044 62.048 304.092 64.624C303.616 65.884 303.448 66.612 303.448 67.116C303.448 67.704 303.588 68.208 303.952 68.684C304.792 69.832 304.988 70 305.632 70C306.304 70 307.116 69.664 307.536 69.216C307.704 69.048 307.76 68.88 307.76 68.544C307.76 68.488 307.76 68.376 307.76 68.18C307.816 67.396 307.816 67.228 307.872 66.948C308.04 65.996 308.488 64.456 308.936 63.252C309.692 61.236 309.748 61.124 309.944 61.124C310.056 61.124 310.084 61.18 310.084 61.488C310.196 63.84 310.364 65.716 310.588 66.752C311.064 68.88 312.156 70 313.696 70C314.956 70 316.272 69.02 316.272 68.096C316.272 67.928 316.216 67.816 315.936 67.62C315.488 67.256 315.32 66.976 315.012 66.164C314.676 65.296 314.508 64.596 314.312 63.084C314.172 61.796 314.088 61.012 314.088 60.564C314.088 60.2 314.172 59.976 314.452 59.64C315.04 58.912 315.628 58.352 316.776 57.456C317.812 56.644 318.148 56.42 319.632 55.468C321.452 54.264 321.564 54.18 321.564 53.844C321.564 53.62 321.396 53.312 320.976 52.752C320.248 51.744 319.744 51.38 319.1 51.38C318.316 51.38 317.448 51.856 316.02 53.032C314.928 53.928 313.668 55.132 312.744 56.14L311.54 57.484C311.4 57.652 311.344 57.68 311.288 57.68C311.232 57.68 311.176 57.652 311.176 57.596C311.176 57.54 311.204 57.456 311.316 57.26C311.736 56.448 312.296 55.496 312.772 54.796C313.276 54.04 313.472 53.564 313.472 53.2C313.472 52.864 313.248 52.528 312.632 51.912C312.156 51.492 311.82 51.324 311.4 51.324ZM322.296 53.956C322.296 54.432 322.492 54.796 322.912 55.16L323.668 55.776C324.228 56.252 324.48 56.364 324.956 56.364C325.964 56.364 326.804 55.524 326.804 54.516C326.804 53.844 326.664 53.592 325.768 52.864L325.292 52.5C324.9 52.164 324.564 52.024 324.144 52.024C323.164 52.024 322.296 52.92 322.296 53.956ZM323.024 57.092C322.436 57.092 321.708 57.316 321.288 57.652C320.98 57.876 320.896 58.016 320.84 58.38C320.728 59.108 320.672 59.304 319.44 62.244C318.488 64.456 318.096 65.856 318.096 66.976C318.096 68.796 319.104 70 320.588 70C321.68 70 322.632 69.496 323.78 68.376C325.264 66.892 326.468 65.016 326.468 64.148C326.468 63.784 326.244 63.308 325.992 63.028C325.852 62.888 325.712 62.804 325.572 62.804C325.404 62.804 325.236 63 324.816 63.56C323.836 64.988 323.024 65.772 322.548 65.772C322.38 65.772 322.24 65.66 322.24 65.464C322.24 65.268 322.352 64.876 322.548 64.4C323.08 62.972 323.836 61.292 324.424 60.256C324.844 59.5 324.956 59.22 324.956 58.94C324.956 58.716 324.844 58.52 324.48 58.072C324.452 58.016 324.34 57.904 324.2 57.708C323.864 57.26 323.528 57.092 323.024 57.092ZM330.936 64.904C331.356 64.96 331.58 64.96 331.888 64.96C334.856 64.96 337.152 62.832 337.152 60.144C337.152 58.268 335.976 56.98 334.24 56.98C330.712 56.98 326.792 61.656 326.792 65.856C326.792 68.348 328.472 70.084 330.852 70.084C332.28 70.084 333.54 69.468 334.632 68.264C335.444 67.396 335.976 66.332 335.976 65.632C335.976 65.24 335.724 64.932 335.36 64.932C335.108 64.932 334.968 65.044 334.268 65.66C333.512 66.332 332.868 66.668 332.196 66.668C331.468 66.668 330.88 66.08 330.88 65.324C330.88 65.212 330.908 65.072 330.936 64.904ZM331.916 62.3C332.616 61.124 333.456 60.312 333.988 60.312C334.212 60.312 334.352 60.452 334.352 60.676C334.352 61.068 333.96 61.628 333.456 61.964C333.12 62.216 332.728 62.3 332.168 62.3C332.112 62.3 332.056 62.3 331.916 62.3ZM341.998 57.036C341.046 57.036 339.982 57.68 339.898 58.296L339.814 59.024C339.786 59.164 339.702 59.444 339.534 59.836C338.61 61.992 338.05 63.616 337.574 65.324C337.21 66.556 337.098 67.172 337.098 67.648C337.098 68.152 337.266 68.572 337.658 69.02C338.274 69.748 338.638 70 339.114 70C340.122 70 340.962 69.3 340.962 68.488C340.962 68.32 340.962 68.236 340.962 68.18C340.962 67.396 341.13 66.472 341.466 65.548C342.306 63.252 343.734 61.46 344.686 61.46C344.882 61.46 345.106 61.572 345.218 61.768L345.554 62.272C345.666 62.412 345.778 62.496 345.918 62.496C346.282 62.496 346.702 62.244 347.178 61.768C347.99 60.956 348.466 59.892 348.466 58.884C348.466 57.82 347.738 57.036 346.786 57.036C346.114 57.036 345.47 57.428 344.63 58.408L343.874 59.304C343.734 59.472 343.65 59.528 343.594 59.528C343.51 59.528 343.454 59.5 343.454 59.416C343.454 59.36 343.482 59.276 343.538 59.164C343.65 58.912 343.706 58.744 343.706 58.604C343.706 58.324 343.426 57.904 342.894 57.428C342.614 57.176 342.334 57.036 341.998 57.036ZM347.41 66.08C347.41 68.432 348.978 70.112 351.162 70.112C354.55 70.112 358.078 65.716 358.078 61.46C358.078 61.096 358.05 60.732 357.966 60.368L357.714 59.192C357.518 58.352 357.406 58.1 357.098 57.736C356.566 57.148 355.754 56.812 354.914 56.812C353.514 56.812 351.666 57.904 350.182 59.612C348.502 61.516 347.41 64.064 347.41 66.08ZM351.386 64.988C351.386 64.4 351.75 63.532 352.338 62.636C353.01 61.572 353.654 60.984 354.13 60.984C354.438 60.984 354.634 61.264 354.634 61.684C354.634 62.272 354.326 63.168 353.822 64.008C353.178 65.1 352.562 65.688 352.002 65.716C351.666 65.716 351.386 65.408 351.386 64.988ZM362.491 57.008C361.903 57.008 361.231 57.26 360.811 57.624C360.531 57.876 360.419 58.044 360.363 58.52C360.251 59.192 360.195 59.388 359.915 60.2C359.579 61.208 359.411 61.88 359.243 62.692C358.963 64.036 358.767 65.604 358.767 66.472C358.767 67.732 358.991 68.236 359.915 68.88C361.175 69.776 361.511 69.944 361.959 69.944C362.547 69.944 362.967 69.664 363.303 69.02L364.871 66.052C365.347 65.156 365.879 64.288 366.439 63.476C366.495 63.42 366.523 63.392 366.579 63.336C366.607 63.308 366.635 63.308 366.691 63.308C366.747 63.308 366.775 63.336 366.775 63.42C366.775 63.448 366.775 63.476 366.775 63.532C366.495 64.54 366.243 66.22 366.243 67.004C366.243 67.984 366.495 68.432 367.531 69.076C368.819 69.888 369.043 70.028 369.463 70.028C370.023 70.028 370.639 69.552 371.591 68.432C373.103 66.612 374.363 64.26 375.539 61.18L375.763 60.564L376.127 59.584C376.211 59.416 376.239 59.192 376.239 59.024C376.239 58.66 376.071 58.38 375.483 57.848C374.839 57.204 374.615 57.092 374.223 57.092C373.243 57.092 372.123 57.764 372.123 58.38C372.123 58.436 372.151 58.604 372.179 58.8C372.235 58.968 372.235 59.136 372.235 59.332C372.235 60.284 371.731 61.768 370.863 63.28C370.387 64.148 370.219 64.344 370.051 64.344C369.967 64.344 369.883 64.26 369.883 64.176C369.883 63.98 370.107 62.972 370.331 62.188L370.947 59.864C371.031 59.612 371.087 59.276 371.087 59.08C371.087 58.576 370.835 58.212 370.163 57.736C369.463 57.288 368.903 57.064 368.483 57.064C367.979 57.064 367.475 57.316 366.859 57.904C366.187 58.576 365.235 59.808 364.507 60.984C364.115 61.656 363.359 62.944 363.107 63.42C362.827 63.952 362.715 64.092 362.603 64.092C362.519 64.092 362.491 64.036 362.491 63.952C362.491 63.868 362.575 63.588 362.715 63.14L362.939 62.44C363.163 61.768 363.527 60.872 364.003 59.864C364.255 59.304 364.339 59.08 364.339 58.828C364.339 58.576 364.255 58.408 363.863 57.96L363.443 57.484C363.163 57.148 362.883 57.008 362.491 57.008ZM375.82 65.828C375.82 68.264 377.36 70.028 379.544 70.028C380.804 70.028 382.12 69.468 383.044 68.572C384.052 67.536 384.78 66.108 384.78 65.128C384.78 64.708 384.528 64.372 384.164 64.372C383.884 64.372 383.828 64.4 383.072 65.156C382.204 66.024 381.448 66.472 380.86 66.472C380.272 66.472 379.852 65.968 379.852 65.24C379.852 64.232 380.664 62.524 381.784 61.18C382.008 60.9 382.176 60.788 382.316 60.788C382.428 60.788 382.512 60.9 382.512 61.068C382.512 61.152 382.512 61.236 382.484 61.32L382.344 61.824C382.316 61.908 382.316 62.02 382.316 62.104C382.316 62.244 382.4 62.468 382.568 62.748C382.82 63.084 383.044 63.224 383.464 63.224C384.724 63.224 385.62 61.908 385.62 60.06C385.62 58.268 384.444 57.064 382.68 57.064C379.46 57.064 375.82 61.712 375.82 65.828ZM385.828 66.08C385.828 68.432 387.396 70.112 389.58 70.112C392.968 70.112 396.496 65.716 396.496 61.46C396.496 61.096 396.468 60.732 396.384 60.368L396.132 59.192C395.936 58.352 395.824 58.1 395.516 57.736C394.984 57.148 394.172 56.812 393.332 56.812C391.932 56.812 390.084 57.904 388.6 59.612C386.92 61.516 385.828 64.064 385.828 66.08ZM389.803 64.988C389.803 64.4 390.168 63.532 390.756 62.636C391.428 61.572 392.072 60.984 392.548 60.984C392.856 60.984 393.052 61.264 393.052 61.684C393.052 62.272 392.744 63.168 392.24 64.008C391.596 65.1 390.98 65.688 390.42 65.716C390.084 65.716 389.803 65.408 389.803 64.988ZM398.652 53.34C398.652 53.144 398.568 52.864 398.4 52.472C398.26 52.22 398.176 51.996 398.092 51.8L397.896 51.324C397.7 50.876 397.392 50.652 397.028 50.652C396.524 50.652 395.796 51.1 394.732 52.08C393.64 53.088 393.136 53.788 393.136 54.376C393.136 54.684 393.388 55.076 393.752 55.412C394.004 55.636 394.2 55.72 394.396 55.72C394.536 55.72 394.676 55.664 394.844 55.524L395.432 55.048C395.908 54.656 396.524 54.348 397.056 54.208L398.064 53.956C398.428 53.872 398.652 53.62 398.652 53.34ZM400.909 57.008C400.321 57.008 399.649 57.26 399.229 57.624C398.949 57.876 398.837 58.044 398.781 58.52C398.669 59.192 398.613 59.388 398.333 60.2C397.997 61.208 397.829 61.88 397.661 62.692C397.381 64.036 397.185 65.604 397.185 66.472C397.185 67.732 397.409 68.236 398.333 68.88C399.593 69.776 399.929 69.944 400.377 69.944C400.965 69.944 401.385 69.664 401.721 69.02L403.289 66.052C403.765 65.156 404.297 64.288 404.857 63.476C404.913 63.42 404.941 63.392 404.997 63.336C405.025 63.308 405.053 63.308 405.109 63.308C405.165 63.308 405.193 63.336 405.193 63.42C405.193 63.448 405.193 63.476 405.193 63.532C404.913 64.54 404.661 66.22 404.661 67.004C404.661 67.984 404.913 68.432 405.949 69.076C407.237 69.888 407.461 70.028 407.881 70.028C408.441 70.028 409.057 69.552 410.009 68.432C411.521 66.612 412.781 64.26 413.957 61.18L414.181 60.564L414.545 59.584C414.629 59.416 414.657 59.192 414.657 59.024C414.657 58.66 414.489 58.38 413.901 57.848C413.257 57.204 413.033 57.092 412.641 57.092C411.661 57.092 410.541 57.764 410.541 58.38C410.541 58.436 410.569 58.604 410.597 58.8C410.653 58.968 410.653 59.136 410.653 59.332C410.653 60.284 410.149 61.768 409.281 63.28C408.805 64.148 408.637 64.344 408.469 64.344C408.385 64.344 408.301 64.26 408.301 64.176C408.301 63.98 408.525 62.972 408.749 62.188L409.365 59.864C409.449 59.612 409.505 59.276 409.505 59.08C409.505 58.576 409.253 58.212 408.581 57.736C407.881 57.288 407.321 57.064 406.901 57.064C406.397 57.064 405.893 57.316 405.277 57.904C404.605 58.576 403.653 59.808 402.925 60.984C402.533 61.656 401.777 62.944 401.525 63.42C401.245 63.952 401.133 64.092 401.021 64.092C400.937 64.092 400.909 64.036 400.909 63.952C400.909 63.868 400.993 63.588 401.133 63.14L401.357 62.44C401.581 61.768 401.945 60.872 402.421 59.864C402.673 59.304 402.757 59.08 402.757 58.828C402.757 58.576 402.673 58.408 402.281 57.96L401.861 57.484C401.581 57.148 401.301 57.008 400.909 57.008Z" fill="black"/>
</svg>
